<svg xmlns="http://www.w3.org/2000/svg" width="1380" height="760" viewBox="0 0 1380 760"><title>기술 모듈 구조</title><defs><marker id="arrow" markerWidth="10" markerHeight="8" refX="9" refY="4" orient="auto"><path d="M0 0L10 4L0 8" fill="#D9793E"/></marker></defs><rect width="100%" height="100%" fill="#F7F6F2"/><g font-family="Apple SD Gothic Neo,Arial,sans-serif" fill="#182733"><text x="50" y="55" font-size="32" fill="#182733">싱글플레이 기술 모듈</text><rect x="60" y="130" width="300" height="130" rx="8" fill="#FFFFFF" stroke="#9EADB4" stroke-width="2"/><text x="85" y="175" font-size="24" fill="#182733">Unity 어댑터</text><text x="85" y="217" font-size="18" fill="#182733">입력 물리 UI 오디오</text><rect x="540" y="130" width="300" height="130" rx="8" fill="#FFFFFF" stroke="#9EADB4" stroke-width="2"/><text x="565" y="175" font-size="24" fill="#182733">Application</text><text x="565" y="217" font-size="18" fill="#182733">시전 회수 구매 임무</text><rect x="1000" y="130" width="300" height="130" rx="8" fill="#FFFFFF" stroke="#9EADB4" stroke-width="2"/><text x="1025" y="175" font-size="24" fill="#182733">Domain</text><text x="1025" y="217" font-size="18" fill="#182733">피해 거래 해금 규칙</text><rect x="530" y="400" width="320" height="130" rx="8" fill="#FFFFFF" stroke="#9EADB4" stroke-width="2"/><text x="555" y="445" font-size="24" fill="#182733">SaveRepository</text><text x="555" y="487" font-size="18" fill="#182733">검증 백업 원자적 교체</text><rect x="1000" y="400" width="300" height="130" rx="8" fill="#FFFFFF" stroke="#9EADB4" stroke-width="2"/><text x="1025" y="445" font-size="24" fill="#182733">콘텐츠 카탈로그</text><text x="1025" y="487" font-size="18" fill="#182733">JSON과 안정된 ID</text><path d="M360 195 L530 195" fill="none" stroke="#D9793E" stroke-width="3" marker-end="url(#arrow)"/><path d="M840 195 L990 195" fill="none" stroke="#D9793E" stroke-width="3" marker-end="url(#arrow)"/><path d="M690 260 L690 390" fill="none" stroke="#D9793E" stroke-width="3" marker-end="url(#arrow)"/><path d="M1150 400 L1150 270" fill="none" stroke="#D9793E" stroke-width="3" marker-end="url(#arrow)"/><text x="60" y="650" font-size="22" fill="#182733">자체 게임 서버 없음 · 도식 수치와 표현 분리 · 저장과 거래를 한 경로에서 확정</text></g></svg>